<svg xmlns="http://www.w3.org/2000/svg" width="26.053" height="26.053" viewBox="0 0 26.053 26.053">
  <g id="Arrow" transform="translate(264.999 -36.468) rotate(135)" fill="#000">
    <path d="M 220.5029754638672 151.6775665283203 L 220.1494293212891 151.3240051269531 L 206.0765991210938 137.2511596679688 L 206.0764617919922 144.8826446533203 L 206.0764465332031 145.3826293945312 L 205.5764617919922 145.3826293945312 L 204.9584197998047 145.3826293945312 L 204.4584197998047 145.3826293945312 L 204.4584197998047 144.8826293945312 L 204.4584197998047 134.9626159667969 L 204.4584197998047 134.4626159667969 L 204.9584197998047 134.4626159667969 L 214.8784484863281 134.4626159667969 L 215.3784484863281 134.4626159667969 L 215.3784484863281 134.9626159667969 L 215.3784484863281 135.5806274414062 L 215.3784484863281 136.0806274414062 L 214.8784484863281 136.0806274414062 L 207.2471618652344 136.0806274414062 L 221.3199615478516 150.1534576416016 L 221.6735229492188 150.5070037841797 L 221.3199768066406 150.8605499267578 L 220.8565368652344 151.3240051269531 L 220.5029754638672 151.6775665283203 Z" stroke="none"/>
    <path d="M 204.9584197998047 134.9626159667969 L 204.9584197998047 144.8826293945312 L 205.5764617919922 144.8826293945312 L 205.5766143798828 136.0440826416016 L 220.5029754638672 150.970458984375 L 220.9664154052734 150.5070037841797 L 206.0400543212891 135.5806274414062 L 214.8784484863281 135.5806274414062 L 214.8784484863281 134.9626159667969 L 204.9584197998047 134.9626159667969 M 203.9584197998047 133.9626159667969 L 215.8784484863281 133.9626159667969 L 215.8784484863281 136.5806274414062 L 208.4542694091797 136.5806274414062 L 222.3806304931641 150.5070037841797 L 220.5029907226562 152.3846740722656 L 206.5765686035156 138.458251953125 L 206.5764312744141 145.8826293945312 L 203.9584197998047 145.8826293945312 L 203.9584197998047 133.9626159667969 Z" stroke="none" fill="#000"/>
  </g>
</svg>
