<svg xmlns="http://www.w3.org/2000/svg" width="389.212" height="69"><g data-name="ADK Rage Dark Logo"><g data-name="Group 59"><path data-name="Path 43" d="M329.741 25.298a6.191 6.191 0 00-1.623-.178 6.714 6.714 0 00-3.775 1.107 7.229 7.229 0 00-1.844 1.751l-.214.294-.029-.571a22.565 22.565 0 00-.121-1.747l-.035-.3h-4.36l.029.366c.053.624.1 1.36.126 2.183.031.858.042 1.522.042 2.026v15.8h4.578V35.343a8.187 8.187 0 01.315-2.3 5.475 5.475 0 01.966-1.9 4.563 4.563 0 011.61-1.3 5.056 5.056 0 012.3-.485 7.226 7.226 0 011.7.194l.4.1.2-4.3z" fill="#3a474f"/><path data-name="Path 44" d="M344.392 46.025h4.217l-.1-.41a10.97 10.97 0 01-.218-1.752 35.44 35.44 0 01-.057-2.078v-8.6a9.4 9.4 0 00-.52-3.14 7.141 7.141 0 00-1.568-2.58 7.4 7.4 0 00-2.682-1.72 10.561 10.561 0 00-3.8-.62 13.041 13.041 0 00-4.623.809 10.919 10.919 0 00-3.667 2.227l-.23.218 2.518 3.015.256-.258a7.572 7.572 0 012.372-1.57 7.411 7.411 0 013-.615 5.274 5.274 0 013.328.981 3.593 3.593 0 011.2 3v.209h-.13c-1.51.011-3.023.082-4.514.2a18.425 18.425 0 00-4.487.915 8.107 8.107 0 00-3.3 2.082 5.414 5.414 0 00-1.291 3.78 5.924 5.924 0 00.734 3.039 6.093 6.093 0 001.824 1.98 7.545 7.545 0 002.417 1.063 10.545 10.545 0 002.51.326 8.569 8.569 0 004.04-.915 7.851 7.851 0 002.178-1.713l.208-.223.022.3a12.427 12.427 0 00.291 1.8zm-.571-8.691a5.664 5.664 0 01-1.391 3.912 5.012 5.012 0 01-3.969 1.535 6.83 6.83 0 01-1.387-.139 3.543 3.543 0 01-1.18-.476 2.561 2.561 0 01-.822-.849 2.385 2.385 0 01-.309-1.279 2.192 2.192 0 01.723-1.744 4.91 4.91 0 011.969-1.052 13.566 13.566 0 012.759-.483 36.69 36.69 0 012.984-.128h.624z" fill="#3a474f"/><path data-name="Path 45" d="M368.589 49.467a5.619 5.619 0 00-1.91-4.51 7.812 7.812 0 00-5.235-1.614 18.667 18.667 0 00-2.827.322 18.781 18.781 0 01-2.712.318c-.66 0-1.756-.08-1.756-.589 0-.3.265-.553.8-.769a6.108 6.108 0 011.482-.417l3.224-.336a8.413 8.413 0 005.61-2.67 8.235 8.235 0 002.15-5.772 10.059 10.059 0 00-1.023-4.366l-3.84 2.445a7.021 7.021 0 01.3 1.738 5.759 5.759 0 01-1.12 3.692 3.631 3.631 0 01-3.045 1.378 3.861 3.861 0 01-3.167-1.413 5.619 5.619 0 01-1.184-3.656 4.781 4.781 0 011.222-3.325 3.945 3.945 0 013.129-1.357 3.818 3.818 0 011.709.4l2.344-3.182a9.863 9.863 0 00-4.325-.871 8.54 8.54 0 00-6.128 2.377 8.615 8.615 0 001.469 13.3l.238.139-.258.088a7.025 7.025 0 00-1.91 1.056 2.785 2.785 0 00-1.2 2.172c0 3.138 2.694 3.8 4.948 3.8a16 16 0 002.738-.331 15.775 15.775 0 012.339-.326c3.608 0 3.608 1.817 3.608 2.413a2.4 2.4 0 01-1.394 2.06 7.984 7.984 0 01-4.057.88 11.375 11.375 0 01-6.155-2.243l-.214-.143-2.4 3.537.192.148a12.811 12.811 0 003.879 1.9 15.034 15.034 0 004.585.768 12.251 12.251 0 007.055-1.91 6 6 0 002.839-5.131z" fill="#3a474f"/><path data-name="Path 46" d="M371.328 25.188l-4.025-4.406-9.745 13.068z" fill="#b2142d"/><path data-name="Path 47" d="M386.561 27.969a8.512 8.512 0 00-3.118-2.121 11.527 11.527 0 00-8.228.063 9.9 9.9 0 00-5.58 5.628 11.742 11.742 0 00-.791 4.347 11.375 11.375 0 00.816 4.366 9.779 9.779 0 005.632 5.542 11.738 11.738 0 004.278.772 11.612 11.612 0 004.9-1.021 9.8 9.8 0 002.386-1.588 10.781 10.781 0 001.456-1.6l.183-.247-3.544-2.237a6.352 6.352 0 01-1.208 1.284 8.62 8.62 0 01-.9.63 6.716 6.716 0 01-5.588.4 6.114 6.114 0 01-1.91-1.2 5.937 5.937 0 01-1.325-1.795 5.775 5.775 0 01-.485-1.711l-.02-.141h15.613l.038-.3a5.756 5.756 0 00.042-.7v-.666a13.253 13.253 0 00-.686-4.371 9.512 9.512 0 00-1.961-3.334zm-13.022 5.793l.018-.152a5.389 5.389 0 01.51-1.544 5.913 5.913 0 011.263-1.676 5.64 5.64 0 011.806-1.112 5.93 5.93 0 012.227-.419 5.85 5.85 0 012.258.408 4.517 4.517 0 011.586 1.107 4.674 4.674 0 01.97 1.643 7.255 7.255 0 01.342 1.6l.013.139z" fill="#3a474f"/></g><g data-name="Group 60"><path data-name="Path 48" d="M325.062 3.5c-.347 0-.684.282-.971.856l-6.351 12.7h3.182l3.229-7.006c.258-.561.579-.837.908-.837s.651.276.908.837l3.232 7.009h3.18l-6.35-12.7c-.288-.574-.623-.856-.971-.856" fill="#3a474f"/><path data-name="Path 49" d="M356.902 10.55c0-.361.286-.713.868-1.025l5.527-2.962V3.5l-10.131 5.849V4.044h-2.884v13.014h2.884v-5.306l10.131 5.849v-3.065l-5.527-2.961c-.582-.312-.868-.664-.868-1.025" fill="#3a474f"/><path data-name="Path 50" d="M368.242 9.645l6.676-3.078V3.5l-12.16 6.08c-.575.287-.856.623-.856.97s.281.684.856.971l12.16 6.079v-3.063l-6.676-3.079c-.562-.258-.838-.577-.838-.908s.276-.649.838-.908" fill="#b2142d"/><path data-name="Path 51" d="M340.199 4.043h-6.189v13.016h6.189c4.678 0 7.384-1.382 7.852-5.425a9.615 9.615 0 000-2.168c-.468-4.042-3.174-5.423-7.852-5.423m4.756 7.046c-.227 2.767-1.771 3.737-4.574 3.737h-3.487v-8.55h3.487c2.8 0 4.346.968 4.574 3.736a6.747 6.747 0 010 1.076" fill="#3a474f"/></g></g><path data-name="Line 18" fill="none" stroke="#3a474f" stroke-linecap="round" stroke-width="2" d="M303.506 3.5v53"/><g data-name="2 A"><text transform="translate(0 55)" font-size="69" font-family="GothamRounded-Bold, Gotham Rounded" font-weight="700" letter-spacing="-.05em"><tspan x="0" y="0">DIGI</tspan></text><text transform="translate(141 54)" fill="#b2142d" font-size="68" font-family="GothamRounded-Book, Gotham Rounded" letter-spacing="-.09em"><tspan x="0" y="0">MAX</tspan></text><g data-name="Group 11" transform="translate(35.883 23.275)"><rect data-name="Rectangle 9" width="17" height="17" rx="8.5" transform="translate(.117 -1.275)" fill="#eee"/><circle data-name="Ellipse 4" cx="4.5" cy="4.5" r="4.5" transform="translate(4.117 2.725)" fill="#b2142d"/></g></g></svg>